<svg xmlns="http://www.w3.org/2000/svg" xmlns:xlink="http://www.w3.org/1999/xlink" width="359" zoomAndPan="magnify" viewBox="0 0 269.25 328.499999" height="438" preserveAspectRatio="xMidYMid meet" version="1.0"><defs><clipPath id="8e77e8927f"><path d="M 74.917969 185.199219 L 110.070312 185.199219 L 110.070312 252.511719 L 74.917969 252.511719 Z M 74.917969 185.199219 " clip-rule="nonzero"/></clipPath><clipPath id="86dd06e8e5"><path d="M 84 75.476562 L 185 75.476562 L 185 148 L 84 148 Z M 84 75.476562 " clip-rule="nonzero"/></clipPath><clipPath id="8f0fde6e80"><path d="M 75 144 L 193.839844 144 L 193.839844 194.398438 L 75 194.398438 Z M 75 144 " clip-rule="nonzero"/></clipPath></defs><g clip-path="url(#8e77e8927f)"><path fill="#fcb432" d="M 92.496094 252.492188 C 93.070312 252.492188 93.644531 252.460938 94.21875 252.40625 C 94.789062 252.347656 95.359375 252.265625 95.925781 252.152344 C 96.488281 252.039062 97.046875 251.902344 97.597656 251.734375 C 98.148438 251.566406 98.691406 251.375 99.222656 251.152344 C 99.753906 250.933594 100.273438 250.6875 100.78125 250.417969 C 101.289062 250.144531 101.78125 249.851562 102.261719 249.53125 C 102.738281 249.210938 103.199219 248.867188 103.644531 248.503906 C 104.089844 248.136719 104.515625 247.753906 104.921875 247.347656 C 105.332031 246.9375 105.714844 246.511719 106.082031 246.070312 C 106.445312 245.625 106.789062 245.164062 107.109375 244.683594 C 107.429688 244.207031 107.722656 243.714844 107.996094 243.207031 C 108.265625 242.699219 108.511719 242.179688 108.734375 241.648438 C 108.953125 241.117188 109.148438 240.574219 109.316406 240.023438 C 109.480469 239.472656 109.621094 238.917969 109.734375 238.351562 C 109.847656 237.789062 109.929688 237.21875 109.988281 236.648438 C 110.042969 236.074219 110.070312 235.5 110.070312 234.925781 L 110.070312 216.800781 C 110.070312 216.089844 110 215.382812 109.863281 214.6875 C 109.722656 213.988281 109.519531 213.3125 109.246094 212.652344 C 108.972656 211.996094 108.640625 211.371094 108.242188 210.78125 C 107.847656 210.1875 107.398438 209.640625 106.894531 209.136719 C 106.390625 208.632812 105.84375 208.183594 105.25 207.789062 C 104.660156 207.394531 104.035156 207.0625 103.375 206.789062 C 102.71875 206.515625 102.039062 206.3125 101.34375 206.171875 C 100.644531 206.03125 99.9375 205.964844 99.226562 205.964844 L 93.992188 205.964844 C 93.988281 205.425781 93.9375 204.898438 93.832031 204.371094 C 93.722656 203.847656 93.570312 203.335938 93.363281 202.839844 C 93.15625 202.347656 92.902344 201.875 92.605469 201.429688 C 92.308594 200.984375 91.96875 200.574219 91.589844 200.195312 C 91.207031 199.816406 90.796875 199.476562 90.351562 199.179688 C 89.902344 198.882812 89.433594 198.632812 88.9375 198.425781 C 88.441406 198.21875 87.933594 198.066406 87.40625 197.960938 C 86.878906 197.855469 86.347656 197.800781 85.8125 197.800781 C 85.472656 197.800781 85.136719 197.769531 84.800781 197.699219 C 84.46875 197.632812 84.144531 197.535156 83.832031 197.40625 C 83.515625 197.273438 83.21875 197.117188 82.933594 196.925781 C 82.652344 196.738281 82.390625 196.523438 82.148438 196.28125 C 81.910156 196.042969 81.695312 195.78125 81.503906 195.496094 C 81.316406 195.214844 81.15625 194.917969 81.027344 194.601562 C 80.894531 194.289062 80.796875 193.964844 80.730469 193.632812 C 80.664062 193.296875 80.628906 192.960938 80.628906 192.621094 L 80.628906 185.222656 L 77.636719 185.222656 L 77.636719 192.621094 C 77.636719 193.160156 77.691406 193.6875 77.796875 194.214844 C 77.902344 194.742188 78.058594 195.25 78.261719 195.746094 C 78.46875 196.242188 78.722656 196.710938 79.019531 197.15625 C 79.316406 197.605469 79.65625 198.015625 80.035156 198.394531 C 80.414062 198.773438 80.828125 199.113281 81.273438 199.410156 C 81.71875 199.710938 82.191406 199.960938 82.6875 200.167969 C 83.179688 200.371094 83.691406 200.527344 84.21875 200.632812 C 84.746094 200.738281 85.277344 200.789062 85.8125 200.792969 C 86.152344 200.792969 86.488281 200.824219 86.824219 200.890625 C 87.15625 200.957031 87.480469 201.058594 87.792969 201.1875 C 88.109375 201.316406 88.40625 201.476562 88.6875 201.664062 C 88.972656 201.851562 89.234375 202.066406 89.472656 202.308594 C 89.714844 202.546875 89.929688 202.808594 90.117188 203.089844 C 90.308594 203.375 90.46875 203.671875 90.597656 203.984375 C 90.730469 204.296875 90.828125 204.621094 90.898438 204.953125 C 90.964844 205.289062 91 205.625 91 205.964844 L 85.765625 205.964844 C 85.050781 205.964844 84.347656 206.03125 83.648438 206.171875 C 82.949219 206.3125 82.273438 206.515625 81.613281 206.789062 C 80.957031 207.0625 80.332031 207.394531 79.738281 207.789062 C 79.148438 208.183594 78.597656 208.632812 78.09375 209.136719 C 77.59375 209.640625 77.140625 210.1875 76.746094 210.78125 C 76.351562 211.371094 76.015625 211.996094 75.746094 212.652344 C 75.472656 213.3125 75.265625 213.988281 75.128906 214.6875 C 74.988281 215.382812 74.917969 216.089844 74.917969 216.800781 L 74.917969 234.925781 C 74.917969 235.5 74.949219 236.074219 75.003906 236.648438 C 75.058594 237.21875 75.144531 237.789062 75.257812 238.351562 C 75.371094 238.917969 75.507812 239.472656 75.675781 240.023438 C 75.84375 240.574219 76.035156 241.117188 76.257812 241.648438 C 76.476562 242.179688 76.722656 242.699219 76.996094 243.207031 C 77.265625 243.714844 77.5625 244.207031 77.882812 244.683594 C 78.199219 245.164062 78.542969 245.625 78.910156 246.070312 C 79.273438 246.511719 79.660156 246.9375 80.066406 247.347656 C 80.472656 247.753906 80.898438 248.136719 81.34375 248.503906 C 81.789062 248.867188 82.25 249.210938 82.730469 249.53125 C 83.210938 249.851562 83.703125 250.144531 84.210938 250.417969 C 84.71875 250.6875 85.238281 250.933594 85.769531 251.152344 C 86.300781 251.375 86.84375 251.566406 87.394531 251.734375 C 87.945312 251.902344 88.5 252.039062 89.066406 252.152344 C 89.632812 252.265625 90.199219 252.347656 90.773438 252.40625 C 91.34375 252.460938 91.917969 252.492188 92.496094 252.492188 Z M 92.496094 249.5 C 90.558594 249.5 88.695312 249.132812 86.90625 248.386719 C 85.117188 247.644531 83.539062 246.585938 82.175781 245.214844 C 84.605469 242.804688 88.433594 241.34375 92.496094 241.34375 C 96.554688 241.34375 100.386719 242.804688 102.816406 245.214844 C 101.449219 246.585938 99.875 247.644531 98.085938 248.386719 C 96.296875 249.132812 94.433594 249.5 92.496094 249.5 Z M 107.078125 216.800781 L 107.078125 219.605469 L 93.992188 219.605469 L 93.992188 208.953125 L 99.226562 208.953125 C 99.742188 208.953125 100.253906 209.003906 100.757812 209.105469 C 101.265625 209.203125 101.753906 209.351562 102.230469 209.550781 C 102.707031 209.746094 103.160156 209.988281 103.589844 210.277344 C 104.019531 210.5625 104.414062 210.886719 104.78125 211.25 C 105.144531 211.617188 105.46875 212.011719 105.757812 212.441406 C 106.042969 212.871094 106.285156 213.320312 106.480469 213.796875 C 106.679688 214.273438 106.828125 214.765625 106.929688 215.269531 C 107.03125 215.777344 107.078125 216.285156 107.078125 216.800781 Z M 85.765625 208.953125 L 91 208.953125 L 91 219.605469 L 77.910156 219.605469 L 77.910156 216.800781 C 77.910156 216.285156 77.960938 215.777344 78.0625 215.269531 C 78.164062 214.765625 78.3125 214.273438 78.507812 213.796875 C 78.707031 213.320312 78.949219 212.871094 79.234375 212.441406 C 79.519531 212.011719 79.847656 211.617188 80.210938 211.25 C 80.574219 210.886719 80.972656 210.5625 81.402344 210.277344 C 81.828125 209.988281 82.28125 209.746094 82.757812 209.550781 C 83.234375 209.351562 83.726562 209.203125 84.230469 209.105469 C 84.738281 209.003906 85.25 208.953125 85.765625 208.953125 Z M 77.910156 222.59375 L 107.078125 222.59375 L 107.078125 234.925781 C 107.082031 237.8125 106.292969 240.464844 104.707031 242.878906 C 101.71875 240.019531 97.289062 238.351562 92.496094 238.351562 C 87.699219 238.351562 83.28125 240.019531 80.28125 242.878906 C 78.699219 240.464844 77.910156 237.8125 77.910156 234.925781 Z M 77.910156 222.59375 " fill-opacity="1" fill-rule="nonzero"/></g><g clip-path="url(#86dd06e8e5)"><path fill="#fcb432" d="M 177.402344 147.863281 L 91.355469 147.863281 C 87.660156 147.863281 84.519531 144.722656 84.519531 141.03125 L 84.519531 82.679688 C 84.519531 78.988281 87.660156 75.847656 91.355469 75.847656 L 177.402344 75.847656 C 181.097656 75.847656 184.234375 78.988281 184.234375 82.679688 L 184.234375 141.03125 C 184.234375 144.722656 181.097656 147.863281 177.402344 147.863281 Z M 91.355469 79.539062 C 89.691406 79.539062 88.214844 81.015625 88.214844 82.679688 L 88.214844 141.03125 C 88.214844 142.691406 89.691406 144.171875 91.355469 144.171875 L 177.402344 144.171875 C 179.066406 144.171875 180.542969 142.691406 180.542969 141.03125 L 180.542969 82.679688 C 180.542969 81.015625 179.066406 79.539062 177.402344 79.539062 Z M 91.355469 79.539062 " fill-opacity="1" fill-rule="nonzero"/></g><g clip-path="url(#8f0fde6e80)"><path fill="#fcb432" d="M 186.636719 194.027344 L 82.121094 194.027344 C 80.089844 194.027344 78.058594 193.105469 76.765625 191.257812 C 75.289062 189.226562 74.917969 186.640625 75.65625 184.054688 L 85.628906 149.523438 C 86.550781 146.386719 89.136719 144.171875 92.09375 144.171875 L 176.480469 144.171875 C 179.433594 144.171875 182.203125 146.386719 183.128906 149.523438 L 193.097656 184.054688 C 193.839844 186.640625 193.285156 189.226562 191.808594 191.257812 C 190.515625 193.105469 188.667969 194.027344 186.636719 194.027344 Z M 92.09375 147.863281 C 90.800781 147.863281 89.507812 148.972656 89.136719 150.449219 L 79.167969 185.164062 C 78.796875 186.640625 78.980469 188.117188 79.90625 189.042969 C 80.273438 189.59375 81.011719 190.335938 82.121094 190.335938 L 186.453125 190.335938 C 187.746094 190.335938 188.484375 189.59375 188.851562 189.042969 C 189.589844 187.933594 189.960938 186.457031 189.589844 185.164062 L 179.621094 150.632812 C 179.25 148.972656 177.957031 148.046875 176.664062 148.046875 L 92.09375 148.046875 Z M 92.09375 147.863281 " fill-opacity="1" fill-rule="nonzero"/></g><path fill="#fcb432" d="M 99.292969 153.402344 L 102.988281 153.402344 L 102.988281 157.097656 L 99.292969 157.097656 Z M 99.292969 153.402344 " fill-opacity="1" fill-rule="nonzero"/><path fill="#fcb432" d="M 95.601562 160.789062 L 99.292969 160.789062 L 99.292969 164.480469 L 95.601562 164.480469 Z M 95.601562 160.789062 " fill-opacity="1" fill-rule="nonzero"/><path fill="#fcb432" d="M 91.90625 168.175781 L 95.601562 168.175781 L 95.601562 171.867188 L 91.90625 171.867188 Z M 91.90625 168.175781 " fill-opacity="1" fill-rule="nonzero"/><path fill="#fcb432" d="M 106.679688 153.402344 L 110.375 153.402344 L 110.375 157.097656 L 106.679688 157.097656 Z M 106.679688 153.402344 " fill-opacity="1" fill-rule="nonzero"/><path fill="#fcb432" d="M 102.988281 160.789062 L 106.679688 160.789062 L 106.679688 164.480469 L 102.988281 164.480469 Z M 102.988281 160.789062 " fill-opacity="1" fill-rule="nonzero"/><path fill="#fcb432" d="M 99.292969 168.175781 L 102.988281 168.175781 L 102.988281 171.867188 L 99.292969 171.867188 Z M 99.292969 168.175781 " fill-opacity="1" fill-rule="nonzero"/><path fill="#fcb432" d="M 114.066406 153.402344 L 117.757812 153.402344 L 117.757812 157.097656 L 114.066406 157.097656 Z M 114.066406 153.402344 " fill-opacity="1" fill-rule="nonzero"/><path fill="#fcb432" d="M 110.375 160.789062 L 114.066406 160.789062 L 114.066406 164.480469 L 110.375 164.480469 Z M 110.375 160.789062 " fill-opacity="1" fill-rule="nonzero"/><path fill="#fcb432" d="M 106.679688 168.175781 L 110.375 168.175781 L 110.375 171.867188 L 106.679688 171.867188 Z M 106.679688 168.175781 " fill-opacity="1" fill-rule="nonzero"/><path fill="#fcb432" d="M 121.453125 153.402344 L 125.144531 153.402344 L 125.144531 157.097656 L 121.453125 157.097656 Z M 121.453125 153.402344 " fill-opacity="1" fill-rule="nonzero"/><path fill="#fcb432" d="M 165.769531 153.402344 L 169.464844 153.402344 L 169.464844 157.097656 L 165.769531 157.097656 Z M 165.769531 153.402344 " fill-opacity="1" fill-rule="nonzero"/><path fill="#fcb432" d="M 169.464844 160.789062 L 173.15625 160.789062 L 173.15625 164.480469 L 169.464844 164.480469 Z M 169.464844 160.789062 " fill-opacity="1" fill-rule="nonzero"/><path fill="#fcb432" d="M 173.15625 168.175781 L 176.847656 168.175781 L 176.847656 171.867188 L 173.15625 171.867188 Z M 173.15625 168.175781 " fill-opacity="1" fill-rule="nonzero"/><path fill="#fcb432" d="M 158.382812 153.402344 L 162.078125 153.402344 L 162.078125 157.097656 L 158.382812 157.097656 Z M 158.382812 153.402344 " fill-opacity="1" fill-rule="nonzero"/><path fill="#fcb432" d="M 162.078125 160.789062 L 165.769531 160.789062 L 165.769531 164.480469 L 162.078125 164.480469 Z M 162.078125 160.789062 " fill-opacity="1" fill-rule="nonzero"/><path fill="#fcb432" d="M 165.769531 168.175781 L 169.464844 168.175781 L 169.464844 171.867188 L 165.769531 171.867188 Z M 165.769531 168.175781 " fill-opacity="1" fill-rule="nonzero"/><path fill="#fcb432" d="M 150.996094 153.402344 L 154.691406 153.402344 L 154.691406 157.097656 L 150.996094 157.097656 Z M 150.996094 153.402344 " fill-opacity="1" fill-rule="nonzero"/><path fill="#fcb432" d="M 154.691406 160.789062 L 158.382812 160.789062 L 158.382812 164.480469 L 154.691406 164.480469 Z M 154.691406 160.789062 " fill-opacity="1" fill-rule="nonzero"/><path fill="#fcb432" d="M 158.382812 168.175781 L 162.078125 168.175781 L 162.078125 171.867188 L 158.382812 171.867188 Z M 158.382812 168.175781 " fill-opacity="1" fill-rule="nonzero"/><path fill="#fcb432" d="M 143.613281 153.402344 L 147.304688 153.402344 L 147.304688 157.097656 L 143.613281 157.097656 Z M 143.613281 153.402344 " fill-opacity="1" fill-rule="nonzero"/><path fill="#fcb432" d="M 147.304688 160.789062 L 150.996094 160.789062 L 150.996094 164.480469 L 147.304688 164.480469 Z M 147.304688 160.789062 " fill-opacity="1" fill-rule="nonzero"/><path fill="#fcb432" d="M 150.996094 168.175781 L 154.691406 168.175781 L 154.691406 171.867188 L 150.996094 171.867188 Z M 150.996094 168.175781 " fill-opacity="1" fill-rule="nonzero"/><path fill="#fcb432" d="M 136.226562 153.402344 L 139.917969 153.402344 L 139.917969 157.097656 L 136.226562 157.097656 Z M 136.226562 153.402344 " fill-opacity="1" fill-rule="nonzero"/><path fill="#fcb432" d="M 139.917969 160.789062 L 143.613281 160.789062 L 143.613281 164.480469 L 139.917969 164.480469 Z M 139.917969 160.789062 " fill-opacity="1" fill-rule="nonzero"/><path fill="#fcb432" d="M 117.757812 160.789062 L 121.453125 160.789062 L 121.453125 164.480469 L 117.757812 164.480469 Z M 117.757812 160.789062 " fill-opacity="1" fill-rule="nonzero"/><path fill="#fcb432" d="M 114.066406 168.175781 L 117.757812 168.175781 L 117.757812 171.867188 L 114.066406 171.867188 Z M 114.066406 168.175781 " fill-opacity="1" fill-rule="nonzero"/><path fill="#fcb432" d="M 128.839844 153.402344 L 132.53125 153.402344 L 132.53125 157.097656 L 128.839844 157.097656 Z M 128.839844 153.402344 " fill-opacity="1" fill-rule="nonzero"/><path fill="#fcb432" d="M 125.144531 160.789062 L 128.839844 160.789062 L 128.839844 164.480469 L 125.144531 164.480469 Z M 125.144531 160.789062 " fill-opacity="1" fill-rule="nonzero"/><path fill="#fcb432" d="M 132.53125 160.789062 L 136.226562 160.789062 L 136.226562 164.480469 L 132.53125 164.480469 Z M 132.53125 160.789062 " fill-opacity="1" fill-rule="nonzero"/><path fill="#fcb432" d="M 121.453125 168.175781 L 147.304688 168.175781 L 147.304688 171.867188 L 121.453125 171.867188 Z M 121.453125 168.175781 " fill-opacity="1" fill-rule="nonzero"/><path fill="#fcb432" d="M 150.996094 188.488281 L 117.757812 188.488281 C 117.019531 188.488281 116.46875 188.117188 116.097656 187.5625 C 115.726562 187.011719 115.726562 186.273438 116.097656 185.71875 L 122.191406 176.484375 C 122.5625 175.929688 123.113281 175.746094 123.667969 175.746094 L 144.71875 175.746094 C 145.273438 175.746094 145.828125 176.117188 146.195312 176.484375 L 152.289062 185.71875 C 152.660156 186.273438 152.660156 187.011719 152.289062 187.5625 C 152.289062 188.117188 151.734375 188.488281 150.996094 188.488281 Z M 121.269531 184.792969 L 147.675781 184.792969 L 143.980469 179.253906 L 124.960938 179.253906 Z M 121.269531 184.792969 " fill-opacity="1" fill-rule="nonzero"/><path fill="#fcb432" d="M 175.003906 140.476562 L 93.753906 140.476562 C 92.644531 140.476562 91.90625 139.738281 91.90625 138.628906 L 91.90625 85.078125 C 91.90625 83.972656 92.644531 83.234375 93.753906 83.234375 L 175.003906 83.234375 C 176.109375 83.234375 176.847656 83.972656 176.847656 85.078125 L 176.847656 138.628906 C 176.847656 139.738281 176.109375 140.476562 175.003906 140.476562 Z M 95.601562 136.785156 L 173.15625 136.785156 L 173.15625 86.925781 L 95.601562 86.925781 Z M 95.601562 136.785156 " fill-opacity="1" fill-rule="nonzero"/></svg>